<svg width="3474" height="4096" viewBox="0 0 3474 4096" fill="none" xmlns="http://www.w3.org/2000/svg">
<path fill-rule="evenodd" clip-rule="evenodd" d="M2521.71 0.159164C2545.77 0.488782 2575.76 1.97206 2588.45 3.45534C2601.14 4.77382 2621.41 7.74038 2633.43 10.0477C2645.3 12.1902 2666.56 16.9697 2680.24 20.5955C2694.08 24.2213 2711.71 28.8359 2719.46 30.9785C2727.2 33.121 2740.22 37.406 2748.3 40.3726C2756.37 43.3391 2770.54 48.9426 2779.61 52.7332C2788.67 56.5239 2798.72 60.6441 2801.85 61.7977C2804.98 62.9514 2816.19 68.3901 2826.57 73.664C2836.95 78.9379 2851.46 86.5191 2858.71 90.3097C2865.96 94.1003 2882.27 103.989 2894.96 112.064C2907.65 120.14 2923.47 130.853 2930.23 135.962C2936.98 140.906 2945.88 147.663 2950.17 150.795C2954.45 153.926 2966.81 164.144 2977.52 173.373C2988.4 182.603 3008.34 201.391 3022.02 215.4C3035.69 229.244 3049.86 243.912 3053.49 248.032C3057.12 252.152 3066.34 263.359 3073.92 272.918C3081.51 282.477 3090.4 294.014 3093.53 298.464C3096.67 302.913 3103.42 312.472 3108.37 319.724C3113.31 326.975 3123.86 343.621 3131.77 356.806C3139.68 369.991 3151.71 392.569 3158.79 407.073C3165.71 421.576 3172.8 436.738 3174.61 440.859C3176.43 444.979 3182.69 461.46 3188.46 477.446C3194.22 493.597 3201.31 514.363 3203.95 523.593C3206.75 532.987 3210.87 549.468 3213.01 560.345C3215.32 571.222 3219.11 589.681 3221.25 601.547C3223.39 613.414 3226.52 633.685 3228.17 646.87C3230.31 665.328 3231.14 682.963 3231.14 723.506C3231.14 756.797 3230.31 783.497 3228.99 796.022C3227.68 806.899 3225.04 826.182 3222.9 838.872C3220.75 851.563 3216.8 872.658 3214 885.843C3211.36 899.028 3206.42 918.64 3203.12 929.517C3199.83 940.395 3192.25 962.644 3186.31 978.96C3180.38 995.276 3168.52 1023.13 3159.95 1040.76C3151.38 1058.4 3137.37 1084.44 3128.97 1098.45C3120.56 1112.46 3107.54 1132.56 3100.13 1142.95C3092.71 1153.33 3082.33 1167.34 3076.89 1173.76C3071.62 1180.36 3066.51 1185.63 3065.68 1185.3C3065.03 1185.14 3056.79 1170.14 3047.56 1152.01C3038.16 1133.88 3023.83 1108.34 3015.59 1095.15C3007.35 1081.97 2998.78 1068.62 2996.47 1065.48C2994.17 1062.35 2988.23 1054.11 2983.29 1047.36C2978.18 1040.6 2967.8 1027.25 2960.05 1017.69C2952.47 1008.13 2937.64 991.156 2908.47 959.183L2911.11 939.406C2912.59 928.528 2914.74 901.829 2915.89 880.075C2917.37 849.091 2917.37 831.621 2915.89 799.318C2914.74 776.575 2912.43 748.557 2910.62 736.691C2908.8 724.825 2906 708.179 2904.19 699.609C2902.38 691.039 2899.41 677.36 2897.43 669.119C2895.62 660.879 2890.68 642.914 2886.72 629.07C2882.6 615.391 2876.34 596.438 2872.88 587.044C2869.25 577.815 2862.99 561.993 2858.71 552.105C2854.59 542.216 2844.37 520.956 2836.13 505.134C2827.89 489.312 2814.38 465.91 2806.14 453.219C2797.73 440.529 2785.04 422.4 2777.96 412.841C2770.71 403.282 2760 389.933 2754.23 383.175C2748.46 376.418 2737.25 364.222 2729.51 356.311C2721.76 348.236 2708.25 335.216 2699.68 327.47C2690.95 319.559 2680.24 310 2675.79 306.21C2671.17 302.584 2658.98 293.19 2648.6 285.608C2638.21 278.027 2618.44 265.007 2604.93 256.767C2591.25 248.526 2566.04 235.177 2548.9 227.101C2530.93 218.531 2504.9 207.983 2487.92 202.215C2471.61 196.776 2447.88 189.525 2435.19 186.393C2422.5 183.097 2404.7 179.307 2395.64 177.988C2386.58 176.67 2369.11 174.527 2356.91 173.209C2344.72 171.725 2322.8 170.242 2308.3 169.583C2293.3 168.924 2270.56 169.253 2255.57 170.407C2241.06 171.396 2217.01 173.703 2202.01 175.681C2187.01 177.494 2169.55 180.131 2163.28 181.449C2157.02 182.768 2143.18 186.064 2132.8 188.866C2122.41 191.667 2102.64 197.436 2089.13 201.885C2075.45 206.335 2059.63 211.939 2053.7 214.246C2047.76 216.718 2031.45 223.805 2017.44 230.233C2003.43 236.66 1983.33 246.713 1972.95 252.482C1962.57 258.25 1953.01 262.7 1951.85 262.206C1950.87 261.711 1949.88 260.393 1949.88 259.569C1949.88 258.745 1954.99 252.152 1961.08 245.065C1967.34 238.143 1983.82 221.168 1997.83 207.324C2011.84 193.48 2030.63 176.175 2039.69 168.594C2048.75 161.013 2064.74 148.487 2075.12 140.741C2085.5 132.995 2105.28 119.481 2118.79 110.911C2132.47 102.176 2156.2 88.6616 2171.52 80.586C2186.85 72.6751 2207.28 62.7866 2216.84 58.8312C2226.4 54.8758 2243.7 47.9538 2255.57 43.5039C2267.43 39.0541 2291.82 31.3081 2309.95 26.199C2328.08 21.2547 2353.62 14.992 2366.8 12.355C2379.98 9.71809 2399.92 6.2571 2411.3 4.77382C2422.67 3.29054 2442.28 1.47764 2454.97 0.8184C2467.65 -0.00564545 2497.65 -0.170455 2521.71 0.159164V0.159164ZM3202.3 3020.28C3414.71 3020.12 3469.1 3020.45 3471.4 3022.1C3474.04 3024.08 3474.2 3027.54 3473.38 3101.7L2932.04 3102.52L2931.71 3062.31C2931.38 3028.36 2931.71 3021.93 2933.85 3021.27C2935 3020.78 3055.96 3020.28 3202.3 3020.28V3020.28ZM42.4074 3021.77C62.3472 3021.77 79.6504 3022.43 80.6391 3023.09C82.2871 3023.91 82.7814 3056.87 83.6054 3313.32L101.733 3298.98C111.62 3290.9 136.668 3271.12 157.268 3254.97C177.702 3238.66 198.795 3222.01 204.068 3217.89C209.342 3213.77 216.593 3207.84 220.383 3204.71C224.173 3201.57 237.521 3190.86 250.21 3180.97C262.735 3170.92 289.101 3150.15 308.547 3134.66C327.992 3119.17 345.955 3105.16 348.262 3103.35C350.569 3101.54 368.366 3087.36 387.647 3072.03C406.928 3056.71 428.845 3039.24 449.444 3022.59L510.417 3022.26C557.218 3021.93 571.885 3022.26 573.533 3023.91C574.686 3024.9 575.675 3026.22 575.675 3026.71C575.675 3027.21 561.668 3038.58 544.694 3052.26C527.556 3065.77 499.706 3088.02 482.402 3101.7C465.099 3115.38 449.115 3127.91 446.807 3129.72C444.5 3131.53 429.999 3143.07 414.673 3155.43C399.347 3167.62 375.617 3186.58 361.939 3197.45C348.426 3208.17 333.76 3219.7 329.475 3222.84C325.191 3225.97 321.895 3229.43 322.225 3230.58C322.389 3231.57 338.209 3249.7 357.16 3270.79C376.112 3292.05 395.557 3313.32 400.171 3318.42C404.785 3323.37 425.549 3346.44 446.313 3369.52C467.077 3392.75 507.451 3437.58 535.96 3469.22C564.469 3500.87 590.671 3529.87 593.967 3533.83C599.24 3539.76 599.899 3541.41 598.087 3543.39C596.439 3545.7 589.353 3546.03 495.586 3545.7L484.874 3534.65C478.942 3528.56 467.077 3515.7 458.508 3506.14C449.938 3496.58 434.283 3479.28 423.737 3467.41C413.19 3455.71 389.954 3429.84 371.992 3409.89C354.029 3389.95 333.595 3367.37 326.839 3359.79C319.917 3352.05 306.899 3337.54 297.835 3327.65C288.772 3317.6 275.918 3303.26 269.326 3295.68C262.899 3288.26 256.967 3282.17 256.143 3282.17C255.484 3282.17 247.903 3287.93 239.169 3294.86C230.27 3301.94 213.791 3315.13 202.256 3324.19C190.72 3333.26 173.417 3346.94 163.859 3354.68C154.136 3362.43 144.249 3370.17 141.942 3371.99C139.47 3373.8 128.429 3382.7 117.223 3391.6C106.017 3400.66 93.6577 3410.39 82.7814 3418.96V3481.59C82.7814 3535.81 82.4519 3544.38 80.3096 3545.04C78.9912 3545.53 62.0176 3545.86 42.7369 3545.86C23.621 3545.86 6.15308 3545.53 0.385348 3544.21L0.0557639 3284.64C-0.109028 3030.34 -0.109028 3025.23 3.02202 3023.58C4.83474 3022.59 20.9844 3021.93 42.4074 3021.77V3021.77ZM2932.04 3465.1L3473.38 3465.93L3473.88 3503.83C3474.2 3538.44 3474.04 3541.91 3471.4 3543.88C3469.1 3545.53 3414.55 3545.86 3202.63 3545.86C3056.62 3545.86 2935.83 3545.53 2934.51 3545.04C2932.37 3544.38 2932.04 3538.28 2932.04 3504.66V3465.1ZM1143.38 3799.67C1219.35 3799.67 1231.71 3800 1233.85 3802.14C1235.5 3803.79 1236.33 3807.74 1236.33 3821.92L1134.16 3924.1L1152.78 3925.25C1162.83 3925.91 1177.17 3928.05 1184.42 3930.03C1191.67 3931.84 1202.05 3935.63 1207.49 3938.44C1212.93 3941.07 1220.34 3945.52 1223.97 3948.16C1227.59 3950.8 1233.36 3956.4 1236.66 3960.69C1239.95 3965.13 1244.4 3972.39 1246.38 3976.84C1249.18 3982.93 1250.33 3989.2 1250.83 4000.73C1251.49 4013.59 1250.99 4018.53 1248.03 4028.75C1245.88 4035.51 1242.42 4044.41 1239.95 4048.53C1237.65 4052.65 1230.89 4060.72 1224.96 4066.49C1217.54 4073.58 1209.96 4079.02 1200.9 4083.3C1193.65 4086.76 1183.26 4090.88 1177.83 4092.2C1172.39 4093.52 1159.7 4095.17 1149.81 4095.66C1139.1 4096.32 1124.6 4095.99 1114.38 4094.84C1103.83 4093.52 1090.32 4090.55 1079.77 4087.09C1070.22 4083.96 1057.03 4078.36 1050.44 4074.9C1044.01 4071.27 1038.58 4067.65 1038.58 4066.66C1038.58 4065.83 1041.21 4060.23 1044.34 4054.3C1047.47 4048.36 1050.77 4043.58 1051.76 4043.58C1052.58 4043.58 1058.85 4046.55 1065.27 4050.18C1071.86 4053.8 1083.89 4059.08 1092.13 4061.88C1105.48 4066.66 1109.27 4067.15 1130.86 4067.98C1146.68 4068.47 1158.05 4067.98 1164.64 4066.66C1170.08 4065.5 1179.31 4062.04 1185.24 4059.08C1191.17 4056.11 1199.08 4050.67 1202.87 4047.05C1206.83 4043.25 1211.77 4036.83 1213.92 4032.54C1216.06 4028.09 1218.69 4020.35 1219.68 4015.24C1221 4008.64 1221 4003.21 1219.85 3997.44C1218.86 3992.99 1217.05 3986.4 1215.56 3983.1C1214.24 3979.64 1211.11 3974.69 1208.64 3972.22C1206.17 3969.58 1201.23 3965.46 1197.6 3962.83C1193.98 3960.36 1185.41 3956.24 1178.65 3953.76C1166.95 3949.31 1164.64 3948.98 1132.51 3948.32C1109.6 3947.83 1098.4 3947.01 1097.57 3945.69C1096.91 3944.7 1096.25 3940.25 1096.25 3927.39L1193.98 3829.33H1122.95C1061.15 3829.33 1051.59 3829 1050.94 3826.86C1050.44 3825.54 1050.11 3819.94 1049.95 3814.66C1049.95 3807.58 1050.61 3804.12 1052.58 3802.3C1054.89 3800 1065.6 3799.67 1143.38 3799.67V3799.67ZM1609.58 3800.49C1628.86 3800.82 1637.1 3801.81 1646.66 3804.61C1653.42 3806.59 1664.79 3810.38 1671.71 3813.02C1679.62 3815.98 1684.89 3818.95 1685.39 3820.76C1685.88 3822.25 1684.07 3827.85 1681.27 3833.12C1678.13 3839.06 1675.33 3842.52 1673.36 3842.52C1671.87 3842.52 1665.78 3840.37 1659.84 3837.9C1653.91 3835.27 1644.35 3831.8 1638.42 3830.16C1632.49 3828.67 1620.62 3827.03 1612.05 3826.53C1603.15 3826.04 1592.44 3826.37 1587.33 3827.52C1582.39 3828.51 1572.67 3831.97 1565.91 3835.27C1557.34 3839.39 1550.75 3844.16 1544.49 3850.59C1539.54 3855.87 1533.12 3864.44 1530.15 3869.88C1527.35 3875.15 1523.07 3885.86 1520.92 3893.61C1518.62 3901.35 1515.98 3914.37 1514.99 3922.45C1514 3930.69 1513.18 3942.56 1513.18 3960.36L1518.95 3950.47C1522.24 3945.03 1528.83 3936.62 1533.45 3931.84C1538.72 3926.4 1546.3 3920.97 1553.55 3917.51C1559.81 3914.37 1570.2 3910.75 1576.62 3909.1C1585.36 3907.12 1593.1 3906.63 1608.76 3907.29C1623.42 3907.78 1631.99 3909.1 1638.42 3911.41C1643.36 3913.06 1651.11 3916.52 1655.72 3918.82C1660.17 3921.13 1667.09 3926.08 1670.88 3929.7C1674.84 3933.49 1680.61 3940.41 1683.74 3945.19C1687.03 3949.81 1691.48 3959.7 1693.79 3966.95C1697.42 3977.83 1698.07 3983.43 1698.24 3998.26C1698.24 4010.46 1697.25 4019.85 1695.44 4027.1C1693.79 4033.04 1690.66 4041.94 1688.19 4046.88C1685.72 4051.82 1679.78 4060.39 1674.67 4065.67C1669.73 4071.11 1661.16 4078.36 1655.72 4081.82C1650.28 4085.45 1640.56 4089.9 1634.3 4091.87C1624.58 4094.84 1618.81 4095.5 1598.05 4095.5C1578.93 4095.5 1571.02 4094.68 1563.44 4092.37C1558 4090.72 1548.77 4086.93 1542.84 4083.8C1536.41 4080.5 1527.51 4073.74 1520.92 4067.15C1514.83 4060.89 1507.9 4052.98 1505.43 4049.35C1502.96 4045.73 1499.01 4037.98 1496.53 4032.05C1494.06 4026.11 1490.44 4015.4 1488.62 4008.15C1486.81 4000.9 1484.34 3987.22 1483.35 3977.66C1482.36 3967.77 1482.03 3952.44 1482.69 3942.23C1483.19 3932.34 1485.16 3916.68 1486.98 3907.62C1488.79 3898.55 1492.91 3884.54 1496.04 3876.3C1499.17 3868.23 1504.11 3857.51 1507.08 3852.57C1509.88 3847.63 1517.96 3837.9 1524.71 3831.15C1532.95 3822.9 1541.19 3816.48 1548.61 3812.69C1555.03 3809.39 1563.93 3805.6 1568.71 3804.28C1573.49 3802.96 1579.09 3801.48 1581.07 3800.82C1583.21 3800.33 1595.9 3800.16 1609.58 3800.49V3800.49ZM1563.44 3939.75C1558.83 3941.73 1551.57 3946.02 1547.12 3949.31C1542.84 3952.61 1536.25 3959.86 1532.46 3965.3C1527.51 3972.55 1525.21 3978.48 1523.39 3987.55C1521.42 3997.6 1521.25 4002.05 1522.74 4011.12C1523.89 4017.21 1526.69 4026.11 1529.16 4030.89C1531.47 4035.51 1537.24 4043.25 1541.85 4047.87C1546.63 4052.65 1555.2 4058.58 1561.79 4061.88C1573.16 4067.48 1573.66 4067.48 1595.57 4067.48C1617 4067.48 1618.32 4067.32 1628.53 4062.54C1634.46 4059.74 1642.87 4054.13 1647.15 4050.18C1652.43 4045.4 1657.37 4038.48 1661.16 4030.56C1667.09 4018.53 1667.26 4017.71 1667.26 3999.25C1667.26 3981.29 1666.93 3979.47 1662.15 3969.42C1659.35 3963.49 1654.57 3955.91 1651.44 3952.28C1648.31 3948.82 1642.54 3944.2 1638.42 3942.23C1634.3 3940.08 1626.88 3937.28 1621.94 3935.8C1616.17 3934.15 1607.44 3933.16 1598.05 3933.33C1589.81 3933.49 1580.58 3934.15 1577.45 3934.81C1574.32 3935.63 1567.89 3937.78 1563.44 3939.75V3939.75ZM2056.99 3799.83C2069.52 3799.83 2082.04 3800.66 2089.13 3802.14C2095.39 3803.62 2105.44 3806.92 2111.37 3809.72C2117.31 3812.52 2126.53 3818.29 2131.97 3822.74C2137.41 3827.02 2144.99 3834.61 2148.78 3839.39C2152.57 3844.33 2158.67 3854.55 2162.29 3862.29C2165.92 3870.04 2170.37 3882.24 2172.35 3889.49C2174.16 3896.74 2176.3 3908.28 2177.29 3915.03C2178.11 3921.79 2178.77 3935.96 2178.94 3946.35C2178.94 3956.73 2178.11 3972.06 2177.13 3980.13C2176.14 3988.37 2173.5 4001.23 2171.36 4008.97C2169.05 4016.72 2164.44 4028.92 2160.81 4036.17C2157.35 4043.42 2151.58 4052.65 2148.12 4056.77C2144.66 4060.89 2138.89 4066.99 2135.27 4070.28C2131.64 4073.41 2124.89 4078.52 2120.44 4081.33C2115.82 4084.29 2106.26 4088.58 2099.01 4090.88C2086.82 4095 2083.69 4095.33 2057.82 4095.33C2031.28 4095.33 2029.14 4095.17 2016.62 4090.72C2009.37 4088.25 1998.99 4083.47 1993.71 4080.17C1988.44 4076.88 1979.05 4068.8 1973.11 4062.37C1967.18 4055.94 1959.93 4046.39 1956.96 4040.95C1954 4035.67 1949.71 4025.29 1947.41 4018.04C1945.1 4010.79 1942.13 3998.92 1940.81 3991.67C1939.66 3984.42 1938.01 3970.41 1937.52 3960.36C1936.86 3949.97 1937.02 3934.48 1938.18 3924.1C1939.17 3914.21 1941.8 3898.55 1944.11 3889.49C1946.42 3880.42 1950.7 3867.9 1953.67 3861.47C1956.63 3855.21 1961.91 3846.31 1965.37 3841.69C1968.66 3837.24 1975.75 3829.83 1980.86 3825.38C1985.97 3821.09 1993.22 3815.65 1996.84 3813.51C2000.47 3811.37 2007.88 3808.07 2013.32 3806.09C2018.6 3804.12 2026.01 3801.97 2029.8 3801.31C2033.43 3800.66 2045.62 3800 2056.99 3799.83V3799.83ZM2019.91 3833.12C2012.5 3836.75 2005.25 3841.86 1999.64 3847.63C1994.87 3852.57 1987.94 3862.13 1984.48 3868.89C1979.87 3877.79 1977.07 3886.69 1974.43 3900.2C1971.14 3916.02 1970.64 3924.1 1970.64 3948.82C1970.81 3972.39 1971.63 3982.11 1974.43 3995.79C1976.41 4006.01 1980.36 4018.04 1983.66 4025.13C1987.5 4033.04 1992.83 4040.45 1999.64 4047.37C2006.24 4054.13 2013.65 4059.57 2019.91 4062.54C2025.35 4065.01 2033.92 4067.65 2038.86 4068.47C2043.81 4069.29 2052.38 4069.95 2057.82 4069.95C2063.25 4069.95 2072.15 4069.13 2077.59 4068.31C2083.03 4067.32 2091.6 4064.68 2096.54 4062.37C2102.15 4059.74 2109.73 4053.8 2116.48 4047.21C2122.41 4041.11 2128.84 4032.71 2130.82 4028.42C2132.8 4023.97 2135.93 4016.06 2137.74 4010.62C2139.55 4005.18 2142.19 3993.81 2143.67 3985.57C2145.65 3973.71 2146.14 3963.32 2145.49 3939.75C2144.83 3916.68 2143.84 3906.3 2141.37 3896.9C2139.55 3890.15 2136.09 3879.76 2133.79 3873.83C2131.31 3867.9 2126.2 3859.16 2122.41 3854.22C2118.62 3849.27 2111.37 3842.52 2106.43 3839.22C2101.49 3835.76 2092.59 3831.31 2086.65 3829.33C2079.57 3826.86 2071 3825.38 2061.11 3825.05C2052.87 3824.72 2042.98 3825.21 2038.86 3826.04C2034.75 3827.02 2026.18 3830.16 2019.91 3833.12V3833.12ZM2284.41 211.115C2308.46 211.444 2336.15 212.763 2346.2 214.081C2356.09 215.4 2369.11 217.377 2375.04 218.366C2380.97 219.355 2394.65 222.487 2405.53 225.123C2416.4 227.76 2436.84 233.529 2450.85 237.979C2464.85 242.264 2481.99 248.197 2488.75 250.999C2495.5 253.635 2507.04 258.745 2514.29 262.041C2521.54 265.337 2534.89 271.764 2543.95 276.379C2553.02 280.994 2566.36 288.41 2573.62 293.025C2580.87 297.475 2591.74 304.397 2597.84 308.352C2604.1 312.307 2615.97 320.713 2624.21 326.975C2632.61 333.073 2645.14 342.797 2651.89 348.565C2658.65 354.169 2673.15 367.519 2684.03 378.066C2694.9 388.614 2709.4 403.612 2716.33 411.193C2723.25 418.939 2734.62 432.618 2741.7 441.683C2748.79 450.747 2761.31 468.217 2769.39 480.413C2777.63 492.609 2791.14 515.682 2799.71 531.504C2808.11 547.325 2820.14 573.365 2826.41 589.187C2832.67 605.008 2840.25 626.269 2843.54 636.157C2846.68 646.211 2851.62 664.34 2854.42 676.535C2857.39 688.731 2861.18 707.025 2862.83 716.914C2864.64 726.967 2867.28 744.272 2868.59 755.644C2869.91 767.016 2871.56 789.265 2872.05 805.087C2872.71 822.556 2872.38 844.97 2871.23 861.946C2870.08 877.438 2868.59 892.93 2868.1 896.556C2867.11 901.5 2866.12 903.148 2863.81 903.148C2861.34 903.148 2859.53 899.852 2855.41 887.491C2852.44 878.921 2846.35 863.264 2841.73 852.881C2837.12 842.498 2830.86 828.325 2827.89 821.567C2824.92 814.81 2818.66 802.12 2813.88 793.55C2809.27 784.98 2802.35 771.96 2798.23 764.708C2794.27 757.457 2784.06 740.811 2775.49 727.626C2767.08 714.442 2752.91 694.17 2744.34 682.304C2735.77 670.602 2721.6 652.309 2712.86 641.926C2704.13 631.543 2684.69 610.117 2669.85 594.296C2655.02 578.639 2642 565.289 2640.85 564.63C2639.86 564.136 2633.93 558.862 2627.67 552.764C2621.57 546.831 2607.89 534.635 2597.35 525.57C2586.8 516.671 2568.84 502.168 2557.47 493.597C2546.1 485.027 2529.12 472.667 2519.73 466.239C2510.5 459.647 2490.89 446.956 2476.39 438.057C2461.89 429.157 2437.33 414.984 2422.01 406.743C2406.52 398.503 2380.64 385.648 2364.33 378.231C2348.01 370.65 2325.77 361.256 2314.89 357.3C2304.02 353.18 2284.73 346.258 2272.05 341.808C2259.36 337.194 2234.47 329.777 2216.84 325.327C2199.21 320.878 2172.51 314.615 2157.52 311.648C2142.52 308.517 2119.12 304.561 2105.61 302.584C2091.93 300.771 2066.22 298.464 2048.26 297.475C2030.46 296.651 2006.57 295.827 1995.19 295.827C1980.36 295.827 1974.27 295.332 1973.61 293.849C1972.95 292.695 1974.27 290.388 1976.41 288.74C1978.55 287.257 1993.38 279.51 2009.2 271.764C2025.02 263.854 2045.13 254.789 2053.7 251.328C2062.27 247.867 2080.39 241.44 2094.07 237.319C2107.58 233.034 2127.36 227.596 2137.74 224.959C2148.12 222.487 2165.92 218.861 2177.29 216.883C2188.66 214.905 2207.45 212.763 2219.31 211.939C2231.01 211.115 2260.35 210.62 2284.41 211.115V211.115ZM1860.23 562.982C1868.14 562.817 1870.12 563.312 1870.12 565.289C1869.95 566.773 1867.81 568.091 1865.01 568.421C1862.21 568.915 1823.65 575.178 1779.32 582.429C1734.82 589.681 1687.03 597.262 1673.03 599.075C1659.02 600.888 1623.75 606.162 1594.75 610.612C1565.75 615.062 1526.86 620.995 1508.23 623.632C1489.61 626.269 1469.67 628.906 1463.74 629.565C1457.81 630.059 1426.99 634.18 1395.35 638.629C1363.55 643.079 1321.03 649.012 1300.6 651.649C1280.16 654.451 1252.31 657.747 1238.8 659.231C1225.12 660.549 1191.01 664.669 1162.99 668.295C1134.81 671.756 1086.7 677.689 1055.88 681.315C1025.06 684.941 990.127 688.731 978.427 689.72C966.562 690.544 930.308 694.335 897.679 697.961C865.05 701.586 809.021 707.355 773.261 710.981C737.501 714.606 691.524 718.727 671.09 720.21C650.655 721.528 631.045 723.176 627.42 723.506C623.794 724 595.615 726.637 564.799 729.274C533.982 731.911 508.44 733.724 507.945 733.23C507.451 732.735 506.957 731.252 506.627 729.934C506.462 728.615 507.616 727.297 509.099 726.802C510.747 726.473 518.657 725.319 526.896 724.33C534.971 723.176 574.686 716.914 615.06 710.321C655.434 703.729 697.951 696.972 709.816 695.488C721.516 694.005 762.384 687.907 800.451 682.139C838.518 676.371 884.495 669.778 902.623 667.471C920.75 664.999 957.004 660.219 983.371 656.594C1009.57 653.133 1055.55 646.87 1085.54 642.914C1115.37 638.794 1148.82 634.674 1159.7 633.685C1170.57 632.696 1205.84 628.576 1237.97 624.621C1270.11 620.5 1318.72 614.732 1345.91 611.601C1373.1 608.305 1408.7 604.679 1425.01 603.195C1441.33 601.712 1474.62 598.416 1499.17 595.779C1523.56 593.142 1576.95 587.703 1617.82 583.583C1658.52 579.463 1705 575.343 1720.82 574.189C1736.64 573.035 1772.23 570.234 1799.92 567.761C1827.6 565.289 1854.63 563.147 1860.23 562.982ZM1866.16 739.328C1871.27 739.163 1872.26 739.657 1871.93 742.129C1871.44 744.272 1868.14 745.59 1858.25 747.568C1851.17 749.051 1841.11 751.029 1836.17 752.018C1831.23 753.007 1803.71 759.105 1775.2 765.532C1746.69 771.96 1716.53 778.387 1708.46 779.706C1700.22 781.189 1666.6 788.111 1633.48 795.198C1600.35 802.285 1570.03 808.547 1565.91 809.207C1561.79 809.701 1525.04 816.788 1484.34 824.864C1443.47 832.939 1401.28 841.015 1390.41 842.828C1379.53 844.641 1349.54 850.079 1323.67 855.024C1297.79 859.968 1266.65 865.736 1254.45 867.714C1242.26 869.692 1207.65 875.625 1177.83 880.899C1147.83 886.173 1108.94 892.765 1091.31 895.567C1073.68 898.368 1027.04 905.95 987.82 912.212C948.764 918.64 902.787 925.727 885.649 928.034C868.675 930.341 832.915 935.45 806.219 939.571C779.523 943.526 736.842 949.624 711.464 953.25C686.086 956.876 660.048 960.337 653.786 960.831C647.359 961.49 631.704 963.303 618.686 965.116C605.832 966.764 594.791 968.247 593.967 968.247C593.308 968.247 592.813 967.259 592.649 966.27C592.484 964.786 610.94 959.842 648.678 951.272C679.659 944.185 714.1 936.604 725.471 934.462C736.842 932.319 766.504 926.056 791.388 920.618C816.271 915.179 845.275 909.246 855.657 907.268C866.039 905.29 903.117 897.874 938.053 890.787C972.989 883.7 1007.1 877.108 1013.86 875.954C1020.61 874.801 1050.61 869.197 1080.6 863.429C1110.43 857.661 1145.69 851.068 1158.87 848.926C1172.06 846.618 1200.24 841.674 1221.5 837.883C1242.75 834.258 1274.23 828.489 1291.53 825.523C1308.67 822.391 1334.71 818.106 1349.21 815.799C1363.71 813.657 1408.86 806.405 1449.73 799.483C1490.44 792.726 1533.12 785.969 1544.49 784.485C1555.86 783.167 1571.68 780.86 1579.92 779.706C1587.99 778.387 1619.63 773.608 1649.96 768.993C1680.28 764.379 1709.61 759.929 1715.05 759.105C1720.49 758.116 1738.28 755.809 1754.6 753.996C1770.91 752.018 1801.23 748.063 1822.16 744.931C1842.93 741.965 1862.87 739.328 1866.16 739.328V739.328ZM2117.47 861.286C2118.62 861.122 2119.61 861.946 2119.61 862.77C2119.61 863.759 2120.27 864.088 2121.26 863.594C2122.08 863.099 2122.58 863.923 2122.08 865.242C2121.59 866.725 2116.15 868.868 2107.58 870.845C2100.17 872.493 2076.27 879.086 2054.52 885.513C2032.77 891.941 2011.18 898.039 2006.73 899.192C2002.12 900.181 1978.06 906.938 1953.17 914.025C1928.29 921.112 1901.92 928.364 1894.67 930.012C1887.42 931.825 1862.87 938.582 1840.29 945.009C1817.55 951.437 1793.82 957.864 1787.56 959.348C1781.13 960.831 1763.33 965.611 1748.01 969.896C1732.52 974.181 1707.8 980.773 1692.8 984.728C1677.81 988.519 1643.69 997.748 1617 1004.84C1590.3 1012.09 1562.45 1019.34 1555.2 1020.99C1547.95 1022.63 1519.44 1029.89 1491.75 1037.14C1464.07 1044.39 1414.8 1057.08 1382.17 1065.32C1349.54 1073.4 1294.33 1087.24 1259.4 1095.81C1224.46 1104.38 1168.43 1118.06 1134.98 1126.3C1101.36 1134.37 1045.83 1147.72 1011.39 1155.96C976.944 1164.21 941.678 1172.45 933.109 1174.26C924.54 1176.07 897.349 1182.33 872.96 1188.27C848.406 1194.2 822.204 1200.3 814.459 1201.62C806.714 1203.1 791.882 1206.4 781.5 1208.87C771.118 1211.51 749.201 1216.61 732.887 1220.41C716.572 1224.2 691.689 1229.8 677.681 1232.6C663.674 1235.57 626.101 1243.64 594.461 1250.73C562.656 1257.65 518.162 1267.54 495.586 1272.48C471.032 1277.76 454.223 1280.73 453.893 1279.74C453.729 1278.91 452.74 1278.42 451.916 1278.91C450.927 1279.41 450.598 1278.75 451.092 1277.76C451.422 1276.61 459.496 1273.47 468.725 1270.84C478.118 1268.36 507.121 1259.96 533.488 1252.38C559.69 1244.8 585.727 1237.71 591.165 1236.39C596.603 1235.07 623.629 1227.66 651.314 1219.91C679 1212.16 722.34 1200.13 747.718 1193.05C773.096 1186.12 803.418 1177.88 815.283 1175.08C826.983 1172.12 855.657 1164.53 878.728 1158.27C901.799 1151.84 923.386 1146.08 926.517 1145.42C929.648 1144.76 955.191 1138.17 983.371 1130.58C1011.39 1123.17 1044.84 1114.43 1057.53 1111.14C1070.22 1108.01 1098.07 1100.92 1119.32 1095.48C1140.58 1089.88 1181.45 1079.33 1209.96 1072.08C1238.47 1064.66 1268.13 1057.41 1275.88 1055.76C1283.62 1054.11 1313.61 1046.86 1342.62 1039.44C1371.62 1032.19 1421.22 1019.83 1453.03 1012.09C1484.67 1004.34 1517.79 996.595 1526.36 994.782C1534.93 992.969 1561.63 986.706 1585.69 980.608C1609.75 974.675 1636.77 968.247 1645.84 966.434C1654.9 964.622 1686.7 957.205 1716.7 950.118C1746.52 943.032 1777.01 935.945 1784.26 934.626C1791.51 933.308 1818.21 927.21 1843.59 921.277C1868.96 915.344 1900.77 908.257 1914.45 905.455C1927.96 902.653 1946.91 898.533 1956.47 896.391C1966.03 894.083 1990.09 888.645 2010.03 884.195C2029.97 879.745 2051.06 875.295 2056.99 874.306C2062.92 873.317 2078.41 870.021 2091.6 867.055C2104.78 863.923 2116.48 861.286 2117.47 861.286ZM2894.14 1037.8C2895.62 1038.13 2901.72 1043.89 2907.48 1050.65C2913.42 1057.41 2922.32 1068.29 2927.42 1074.55C2932.37 1080.98 2942.75 1094.99 2950.5 1105.86C2958.08 1116.74 2966.97 1130.09 2970.27 1135.53C2973.4 1140.97 2979.33 1150.69 2983.12 1156.95C2987.08 1163.38 2996.97 1181.84 3005.04 1198.16C3013.12 1214.47 3020.37 1229.47 3021.19 1231.61C3022.51 1234.74 3021.36 1236.56 3013.94 1244.14C3009.33 1249.08 2997.13 1260.29 2987.24 1269.02C2977.19 1277.92 2960.22 1291.93 2949.34 1300.34C2938.47 1308.74 2921.33 1321.1 2911.44 1327.86C2901.39 1334.78 2879.96 1347.97 2863.65 1357.2C2847.34 1366.59 2830.2 1375.82 2825.75 1377.96C2821.13 1379.94 2810.42 1384.72 2801.85 1388.51C2793.28 1392.47 2779.11 1398.4 2770.54 1402.02C2761.97 1405.49 2740.71 1412.74 2723.58 1418.01C2706.27 1423.29 2682.38 1430.21 2670.35 1433.17C2651.23 1438.12 2648.1 1438.45 2646.78 1436.31C2645.96 1434.99 2645.3 1433.5 2645.3 1433.01C2645.14 1432.51 2652.06 1426.09 2660.46 1418.84C2668.87 1411.42 2683.86 1396.92 2693.91 1386.7C2703.97 1376.31 2716.98 1362.31 2722.92 1355.55C2728.85 1348.79 2739.23 1336.1 2746.15 1327.53C2752.91 1318.96 2765.76 1301.49 2774.66 1288.8C2783.56 1276.11 2797.57 1254.69 2805.64 1241.01C2813.88 1227.49 2827.23 1202.61 2835.47 1185.8C2843.87 1168.98 2854.75 1144.59 2860.02 1131.41C2865.13 1118.22 2872.38 1098.94 2876.01 1088.56C2879.8 1078.18 2883.59 1066.31 2884.41 1062.19C2885.4 1058.07 2887.21 1050.82 2888.7 1046.04C2890.68 1039.44 2891.99 1037.47 2894.14 1037.8ZM1922.69 1097.46C1923.51 1097.79 1924.33 1099.27 1924.33 1100.75C1924.33 1102.9 1921.2 1104.87 1913.62 1107.84C1907.69 1110.15 1889.23 1117.56 1872.42 1124.49C1855.62 1131.24 1836.01 1138.82 1828.75 1141.46C1821.5 1143.93 1802.55 1150.86 1786.73 1156.79C1770.91 1162.89 1753.44 1169.15 1748.01 1170.96C1742.57 1172.61 1727.74 1177.88 1715.05 1182.5C1702.36 1187.11 1659.02 1201.95 1618.64 1215.46C1578.27 1228.81 1529.66 1244.63 1510.71 1250.57C1491.59 1256.5 1454.18 1268.04 1427.49 1276.28C1400.79 1284.35 1353.66 1298.03 1322.84 1306.6C1292.03 1315.17 1261.54 1323.58 1255.28 1325.06C1248.85 1326.71 1225.78 1332.64 1203.7 1338.41C1179.8 1344.84 1163.49 1348.3 1162.99 1347.31C1162.5 1346.48 1162.5 1344.67 1162.66 1343.68C1162.99 1342.53 1169.92 1338.74 1177.99 1335.44C1186.07 1332.15 1210.45 1322.42 1232.21 1313.69C1253.96 1305.12 1274.39 1297.37 1277.52 1296.55C1280.66 1295.56 1294.33 1290.61 1308.01 1285.34C1321.52 1280.23 1347.56 1270.84 1365.69 1264.57C1383.82 1258.31 1428.97 1242.98 1466.21 1230.46C1503.29 1217.93 1555.2 1200.96 1581.57 1192.55C1607.77 1184.31 1634.46 1176.07 1640.89 1174.42C1647.15 1172.61 1670.55 1165.69 1692.8 1158.93C1715.05 1152.34 1743.23 1143.93 1755.42 1140.64C1767.62 1137.18 1790.19 1130.91 1805.68 1126.46C1821.01 1122.18 1840.78 1117.07 1849.35 1115.09C1857.92 1113.28 1877.53 1108.34 1893.02 1104.38C1908.35 1100.42 1921.7 1097.29 1922.69 1097.46V1097.46ZM2419.53 1329.84C2422.5 1330 2423.65 1330.99 2423.65 1333.13C2423.65 1335.77 2420.52 1337.42 2405.53 1341.87C2395.48 1344.84 2380.64 1349.29 2372.57 1351.59C2364.33 1353.9 2339.12 1362.47 2316.54 1370.55C2293.8 1378.79 2259.36 1391.97 2239.91 1400.05C2220.47 1408.12 2203.99 1414.88 2203.16 1414.88C2202.5 1414.88 2189.98 1420.48 2175.15 1427.41C2160.48 1434.33 2145.81 1440.92 2142.68 1442.07C2139.55 1443.06 2107.25 1458.88 2071 1477.01C2034.75 1495.14 2001.29 1512.28 1996.84 1514.92C1992.23 1517.56 1978.88 1524.81 1967.18 1531.07C1955.32 1537.17 1943.94 1543.6 1941.64 1545.08C1939.33 1546.56 1927.47 1553.48 1915.27 1560.24C1903.08 1567.16 1884.12 1578.04 1873.25 1584.47C1862.37 1590.9 1843.26 1602.27 1830.73 1609.68C1818.37 1617.27 1796.13 1630.94 1781.29 1640.17C1766.63 1649.4 1745.53 1662.75 1734.33 1669.84C1723.12 1676.93 1691.15 1697.86 1663.3 1716.48C1635.45 1735.1 1598.7 1759.99 1581.73 1771.69C1564.76 1783.56 1545.15 1797.24 1538.06 1802.18C1530.81 1807.13 1517.3 1816.85 1507.9 1823.61C1498.68 1830.36 1482.36 1842.07 1471.98 1849.81C1461.6 1857.39 1443.31 1870.91 1431.61 1879.64C1419.74 1888.38 1408.21 1896.95 1405.9 1898.76C1403.43 1900.41 1393.87 1907.82 1384.47 1914.91C1375.08 1922.16 1349.21 1942.1 1326.96 1959.41C1304.72 1976.71 1279.83 1996.16 1271.76 2002.92C1263.52 2009.51 1248.03 2022.04 1237.32 2030.94C1226.6 2039.67 1208.48 2054.5 1197.27 2063.9C1186.23 2073.13 1177 2081.2 1177.17 2082.03C1177.17 2082.69 1190.02 2094.39 1205.51 2107.9C1221 2121.58 1249.35 2146.3 1268.3 2162.95C1287.41 2179.76 1319.38 2207.94 1339.16 2225.58C1359.1 2243.38 1381.34 2263.15 1388.76 2269.41C1396.01 2275.84 1417.27 2294.3 1435.73 2310.62C1454.18 2326.93 1479.4 2349.18 1491.59 2360.06C1503.95 2370.94 1522.9 2387.58 1533.78 2397.14C1544.65 2406.7 1564.59 2424.34 1578.27 2436.53C1591.78 2448.56 1602.99 2459.77 1602.99 2461.25C1602.99 2462.74 1599.03 2465.87 1593.1 2468.83C1587.66 2471.64 1573.99 2479.05 1562.62 2485.15C1551.24 2491.41 1540.2 2497.18 1537.9 2498C1535.59 2498.83 1527.51 2503.11 1519.77 2507.56C1512.02 2511.85 1495.71 2520.58 1483.52 2527.01C1471.32 2533.27 1447.1 2545.8 1429.96 2554.86C1412.65 2563.93 1392.88 2574.48 1373.1 2585.02L1361.07 2574.81C1354.65 2569.2 1348.39 2563.6 1347.56 2562.61C1346.57 2561.62 1339.65 2555.19 1331.91 2548.6C1324.16 2541.84 1315.26 2534.1 1312.13 2531.3C1309 2528.49 1285.27 2507.4 1259.4 2484.49C1233.53 2461.75 1206.01 2437.36 1198.26 2430.43C1190.51 2423.35 1169.09 2404.39 1150.63 2388.08C1132.01 2371.76 1098.4 2341.77 1075.65 2321.49C1053.08 2301.22 1025.39 2276.5 993.917 2247.99L988.644 2252.93C985.843 2255.74 983.041 2258.37 982.547 2259.03C982.052 2259.53 968.045 2274.03 951.236 2291.17C934.427 2308.31 889.934 2353.8 852.361 2392.2C814.788 2430.6 781.336 2464.88 778.204 2468.17C775.073 2471.47 759.418 2487.29 743.433 2503.61C727.449 2519.76 679.329 2569.04 636.483 2613.04C593.472 2657.05 557.548 2692.97 556.559 2692.97C555.405 2692.97 554.746 2506.41 554.581 2079.88C554.252 1596.01 554.581 1466.47 556.229 1465.64C557.218 1464.98 608.139 1464.32 668.947 1464.32C765.351 1464.32 780.182 1464.65 782.324 1466.79C784.467 1468.94 784.796 1509.32 784.631 2150.75L824.676 2111.2C846.758 2089.44 875.432 2061.76 888.615 2049.56C901.799 2037.36 916.63 2023.68 921.574 2018.91C926.517 2014.29 942.502 2000.12 957.004 1987.43C971.506 1974.74 993.094 1956.11 1004.96 1946.22C1016.82 1936.34 1034.62 1921.83 1044.51 1913.92C1054.4 1906.01 1070.22 1893.32 1079.77 1885.74C1089.33 1878.16 1110.1 1862.34 1125.92 1850.64C1141.74 1838.93 1160.69 1824.92 1167.94 1819.82C1175.19 1814.54 1189.2 1804.49 1199.25 1797.57C1209.14 1790.48 1228.42 1777.3 1242.09 1768.07C1255.61 1759 1278.35 1744.17 1292.36 1735.1C1306.36 1726.04 1328.28 1712.36 1340.97 1704.61C1353.66 1696.87 1376.07 1683.52 1390.74 1674.62C1405.57 1665.88 1417.93 1658.8 1418.42 1658.8C1418.92 1658.8 1429.46 1653.03 1441.82 1645.94C1454.35 1638.69 1477.91 1625.84 1494.23 1617.27C1510.54 1608.53 1541.36 1592.87 1562.62 1582.49C1583.87 1572.11 1608.76 1560.08 1617.82 1555.79C1626.88 1551.51 1640.23 1545.41 1647.48 1542.28C1654.73 1539.15 1673.19 1530.91 1688.68 1524.15C1704.01 1517.23 1722.3 1509.65 1729.06 1507.01C1735.81 1504.54 1751.47 1498.27 1763.66 1493.16C1775.86 1488.06 1794.81 1480.8 1805.68 1476.85C1816.56 1472.89 1838.81 1464.82 1855.12 1458.88C1871.44 1452.95 1905.55 1441.41 1930.93 1433.17C1956.3 1425.1 1986.3 1415.7 1997.67 1412.57C2009.04 1409.28 2034.25 1402.35 2053.7 1396.92C2073.14 1391.64 2096.21 1385.71 2104.78 1383.57C2113.35 1381.59 2137.9 1375.98 2159.16 1370.88C2180.42 1365.93 2210.41 1359.83 2225.9 1357.2C2241.23 1354.56 2269.41 1349.78 2288.53 1346.48C2307.48 1343.35 2337.63 1338.74 2355.27 1336.6C2372.9 1334.29 2393.66 1331.82 2401.41 1330.99C2409.15 1330.17 2417.23 1329.67 2419.53 1329.84V1329.84ZM2398.11 2065.05C2414.92 2065.55 2437.5 2066.86 2448.37 2068.35C2459.25 2069.67 2481.17 2073.46 2496.99 2076.75C2512.81 2080.05 2534.39 2085.49 2544.78 2088.95C2555.16 2092.41 2575.59 2100.16 2590.09 2106.09C2604.6 2112.19 2627.5 2123.56 2641.18 2131.3C2654.69 2139.22 2669.85 2148.44 2674.47 2151.91C2679.25 2155.37 2682.87 2159.16 2682.71 2160.31C2682.21 2161.63 2679.08 2162.29 2673.15 2162.12C2668.21 2161.96 2649.09 2161.79 2630.47 2161.63C2605.75 2161.3 2588.78 2162.12 2567.02 2164.6C2550.71 2166.41 2531.76 2169.05 2525 2170.53C2518.25 2171.85 2505.56 2174.98 2496.99 2177.29C2488.42 2179.59 2469.14 2185.36 2454.14 2190.31C2439.15 2195.09 2419.86 2202.01 2411.3 2205.63C2402.73 2209.26 2385.26 2217.17 2372.57 2223.27C2359.88 2229.37 2339.78 2239.91 2328.08 2246.84C2316.21 2253.76 2301.38 2262.66 2295.12 2266.78C2288.69 2270.73 2275.34 2279.96 2265.45 2287.05C2255.4 2294.14 2241.39 2304.52 2233.98 2310.12C2226.73 2315.89 2214.04 2326.11 2205.96 2332.87C2197.89 2339.62 2182.73 2353.3 2172.35 2363.19C2161.96 2373.08 2150.1 2384.62 2145.98 2388.74C2141.86 2392.86 2118.13 2417.41 2093.25 2443.12C2068.36 2468.83 2036.72 2501.14 2023.04 2514.82C2009.37 2528.49 1991.9 2545.63 1984.32 2552.89C1976.74 2560.3 1963.72 2572.17 1955.64 2579.42C1947.41 2586.67 1934.06 2598.21 1925.98 2604.97C1917.74 2611.72 1903.74 2622.93 1894.67 2629.69C1885.61 2636.61 1867.81 2649.3 1855.12 2657.87C1842.43 2666.44 1819.36 2680.61 1804.04 2689.35C1788.55 2698.08 1775.53 2705.33 1774.7 2705.33C1774.04 2705.33 1766.3 2708.8 1757.4 2712.92C1748.67 2717.04 1734.33 2723.46 1725.76 2727.09C1717.19 2730.72 1699.39 2737.47 1686.21 2741.92C1673.03 2746.37 1649.3 2753.62 1633.48 2758.24C1617.66 2762.69 1598.7 2767.47 1591.45 2768.79C1584.2 2770.1 1573 2772.25 1566.74 2773.57C1560.31 2774.88 1543.99 2777.85 1530.48 2780.16C1516.8 2782.3 1496.53 2785.43 1485.16 2786.92C1473.79 2788.23 1453.03 2790.54 1439.02 2791.86C1425.01 2793.18 1388.27 2795.16 1357.45 2796.31C1314.11 2797.79 1286.59 2797.79 1236.33 2796.31C1200.57 2795.16 1156.07 2793.18 1137.45 2791.86C1118.83 2790.38 1084.06 2787.41 1060 2785.1C1035.94 2782.79 998.861 2778.84 977.603 2776.2C956.345 2773.57 928.165 2770.27 914.982 2768.79C901.799 2767.47 875.926 2764.17 857.305 2761.37C838.683 2758.57 821.874 2756.1 819.732 2755.6C817.315 2755.05 816.271 2753.84 816.601 2751.98C817.26 2749.17 819.732 2749.01 848.406 2749.5C865.544 2749.83 897.02 2749.34 918.278 2748.35C939.536 2747.36 972.165 2745.38 990.786 2744.06C1009.41 2742.58 1035.61 2740.11 1049.29 2738.3C1062.8 2736.32 1086.53 2732.69 1102.02 2730.06C1117.35 2727.42 1146.68 2721.82 1167.11 2717.7C1187.55 2713.58 1214.24 2707.64 1226.44 2704.35C1238.63 2701.21 1261.21 2694.95 1276.7 2690.5C1292.03 2685.89 1311.8 2679.95 1320.37 2677.15C1328.94 2674.19 1349.04 2667.26 1364.86 2661.33C1380.68 2655.56 1398.15 2648.97 1403.59 2646.83C1409.03 2644.68 1426.5 2637.27 1442.32 2630.35C1458.14 2623.42 1485.66 2610.57 1503.29 2601.83C1520.92 2593.1 1544.32 2580.74 1555.2 2574.48C1566.08 2568.21 1576.13 2562.77 1577.45 2562.28C1578.76 2561.79 1584.7 2558.33 1590.63 2554.53C1596.56 2550.74 1609.42 2542.67 1619.47 2536.41C1629.36 2530.31 1645.34 2519.92 1654.73 2513.5C1664.13 2507.07 1684.89 2492.07 1700.88 2480.04C1716.86 2468.17 1740.26 2449.72 1752.95 2439.17C1765.64 2428.62 1787.06 2409.67 1800.74 2397.31C1814.25 2384.78 1841.44 2358.08 1860.89 2337.81C1880.33 2317.7 1906.04 2292.16 1917.74 2281.12C1929.61 2270.24 1944.27 2256.72 1950.54 2251.29C1956.8 2245.85 1971.63 2233.65 1983.49 2224.09C1995.36 2214.53 2015.13 2199.7 2027.33 2190.97C2039.52 2182.23 2054.68 2172.01 2061.11 2168.06C2067.37 2164.1 2078.58 2157.34 2085.83 2152.89C2093.08 2148.45 2111.54 2138.39 2127.03 2130.65C2142.35 2122.9 2165.75 2112.19 2178.94 2107.08C2192.12 2101.97 2212.06 2094.55 2223.43 2090.76C2234.8 2087.14 2255.9 2081.53 2270.4 2078.4C2284.9 2075.27 2305.33 2071.48 2315.72 2070C2326.1 2068.51 2342.08 2066.53 2351.15 2065.88C2360.21 2065.05 2381.3 2064.72 2398.11 2065.05V2065.05ZM2446.23 2268.59C2447.06 2268.59 2447.88 2269.58 2448.37 2270.73C2448.87 2271.72 2445.24 2281.28 2440.3 2291.66C2435.19 2302.05 2428.27 2320.34 2424.48 2332.04C2420.85 2343.91 2416.24 2361.21 2414.1 2370.77C2410.97 2385.44 2410.47 2393.02 2410.47 2420.22C2410.47 2448.4 2410.97 2454.33 2414.43 2468.01C2416.57 2476.58 2421.18 2491.08 2424.81 2500.15C2428.43 2509.38 2436.01 2523.88 2442.11 2533.11C2449.53 2544.15 2459.25 2555.85 2472.1 2568.54C2485.29 2581.56 2497.15 2591.45 2510.17 2600.02C2520.55 2606.94 2534.23 2615.35 2540.66 2618.48C2546.92 2621.61 2559.61 2627.54 2568.67 2631.67C2577.74 2635.79 2591.08 2641.39 2598.33 2644.19C2605.59 2646.99 2621.08 2651.94 2632.94 2655.07C2644.64 2658.36 2663.59 2663.31 2674.96 2665.95C2686.33 2668.75 2707.1 2673.2 2721.1 2675.67C2735.11 2678.31 2757.69 2681.6 2771.37 2682.92C2784.88 2684.4 2808.94 2686.71 2824.43 2688.03C2840.08 2689.35 2864.97 2691 2879.63 2691.49C2894.47 2691.99 2908.14 2692.64 2910.12 2693.14C2912.59 2693.47 2913.91 2694.95 2913.91 2697.09C2913.91 2699.9 2909.46 2701.71 2882.93 2710.11C2865.96 2715.55 2846.84 2721.49 2840.58 2723.3C2834.15 2725.11 2819.32 2728.9 2807.62 2731.54C2795.76 2734.34 2772.03 2738.3 2754.89 2740.6C2737.58 2742.91 2715.34 2745.71 2705.45 2746.7C2695.4 2747.69 2668.7 2748.68 2646.12 2748.68C2623.38 2748.68 2596.69 2747.69 2586.8 2746.7C2576.75 2745.55 2556.48 2742.91 2541.48 2740.77C2526.48 2738.63 2505.39 2734.67 2494.52 2731.87C2483.64 2729.23 2466.99 2724.29 2457.44 2721.16C2447.88 2718.19 2432.72 2712.92 2423.65 2709.62C2414.59 2706.32 2392.34 2696.43 2374.22 2687.37C2356.09 2678.47 2333.02 2665.62 2323.13 2659.02C2313.08 2652.43 2300.55 2643.7 2295.12 2639.58C2289.68 2635.62 2278.97 2626.23 2271.39 2618.97C2263.81 2611.56 2253.42 2600.02 2248.48 2593.26C2243.37 2586.51 2236.45 2575.3 2232.99 2568.54C2229.53 2561.79 2225.57 2551.07 2224.09 2544.65C2221.95 2535.58 2221.45 2528 2222.11 2510.04C2222.77 2491.08 2223.76 2484.99 2227.06 2475.43C2229.36 2469.16 2233.32 2459.77 2235.79 2454.82C2238.26 2449.88 2244.36 2439.5 2248.97 2431.75C2253.75 2424.01 2264.79 2409.67 2273.36 2399.61C2281.93 2389.73 2295.78 2375.06 2304.35 2367.31C2312.91 2359.57 2326.43 2347.86 2334.67 2341.27C2342.74 2334.68 2360.37 2321.82 2373.89 2312.59C2387.24 2303.37 2405.03 2291.83 2413.44 2286.88C2421.68 2281.94 2432.22 2275.84 2436.84 2273.37C2441.29 2270.73 2445.57 2268.59 2446.23 2268.59V2268.59ZM2136.42 2517.45C2137.25 2517.45 2138.4 2519.1 2139.22 2521.24C2140.05 2523.22 2141.86 2531.63 2143.34 2539.7C2144.99 2547.94 2149.28 2562.77 2153.07 2572.66C2156.69 2582.72 2163.45 2597.06 2168.06 2604.8C2172.51 2612.55 2180.75 2625.07 2186.19 2632.82C2191.63 2640.56 2204.32 2655.23 2214.2 2665.45C2224.26 2675.83 2239.91 2689.84 2248.97 2696.93C2258.04 2704.02 2274.02 2715.06 2284.41 2721.65C2294.79 2728.24 2313.9 2738.63 2326.76 2745.05C2339.78 2751.32 2357.24 2759.39 2365.48 2763.02C2373.89 2766.48 2395.64 2774.22 2413.77 2779.99C2431.89 2785.93 2448.21 2790.87 2449.86 2791.2C2451.67 2791.53 2453.32 2793.18 2453.65 2794.83C2454.14 2797.46 2451.83 2797.63 2423.16 2797.63C2406.19 2797.63 2382.62 2796.97 2370.92 2795.98C2359.06 2794.99 2338.29 2792.85 2324.78 2790.87C2311.1 2789.06 2292.32 2786.09 2282.76 2784.28C2273.2 2782.47 2252.11 2778.02 2235.79 2774.22C2219.48 2770.6 2197.23 2765 2186.35 2761.86C2175.48 2758.73 2151.75 2750.82 2133.62 2744.56C2115.49 2738.13 2091.43 2728.9 2080.06 2723.96C2068.69 2718.85 2049.74 2710.11 2038.04 2704.51C2026.18 2698.91 2006.57 2688.69 1994.37 2681.77C1977.73 2672.54 1971.96 2668.58 1971.63 2665.95C1971.46 2663.64 1973.11 2661.17 1976.57 2658.36C1979.54 2656.22 1991.73 2646.66 2003.43 2637.43C2015.3 2628.04 2035.24 2611.56 2047.93 2600.68C2060.62 2589.8 2085.5 2566.73 2103.13 2549.26C2120.77 2531.79 2135.76 2517.62 2136.42 2517.45ZM1206.17 3021.93C1236.82 3021.77 1243.25 3022.26 1245.39 3024.24C1247.53 3026.38 1247.86 3057.53 1247.86 3283.81C1247.86 3515.37 1247.53 3541.25 1245.23 3543.39C1243.08 3545.37 1236.49 3545.86 1206.5 3545.86C1186.72 3545.86 1169.26 3545.53 1167.94 3545.04C1165.8 3544.38 1165.47 3513.56 1165.14 3283.98C1164.81 3057.86 1165.14 3023.58 1167.11 3022.92C1168.43 3022.43 1186.07 3021.93 1206.17 3021.93ZM2119.78 3021.77C2386.91 3021.77 2423.16 3022.1 2425.3 3024.24C2427.28 3026.22 2427.77 3032.98 2427.77 3062.97C2427.77 3082.91 2427.44 3100.38 2426.95 3101.7C2426.29 3103.84 2409.81 3104.17 2159.16 3104.17L2158.34 3545.04L2122.08 3545.53C2102.15 3545.7 2084.18 3545.53 2078.41 3544.21V3104.17H1945.76C1829.25 3104.17 1812.93 3103.84 1812.28 3101.7C1811.78 3100.38 1811.45 3082.91 1811.29 3063.14C1811.29 3031.66 1811.62 3026.55 1813.92 3024.4C1816.4 3022.1 1846.39 3021.77 2119.78 3021.77ZM3173.79 3241.13C3304.63 3240.96 3412.74 3241.29 3414.06 3241.79C3416.2 3242.45 3416.53 3248.55 3416.53 3282.17C3416.53 3315.79 3416.2 3321.89 3414.06 3322.54C3412.74 3323.04 3304.8 3323.37 3174.28 3323.37C3043.77 3323.37 2935.83 3323.04 2934.51 3322.54C2932.37 3321.89 2932.04 3315.62 2931.71 3282.33C2931.38 3249.2 2931.71 3242.78 2933.69 3242.12C2935 3241.62 3043.11 3241.13 3173.79 3241.13ZM2387.4 3823.23C2396.79 3823.73 2403.06 3825.05 2409.48 3827.85C2415.09 3830.32 2420.85 3834.61 2424.81 3839.22C2428.27 3843.34 2432.39 3850.43 2433.87 3854.88C2435.52 3860.48 2436.18 3867.24 2435.85 3875.48C2435.35 3884.21 2434.04 3889.98 2431.24 3895.26C2429.26 3899.38 2425.8 3904.49 2423.98 3906.63C2422.01 3908.61 2417.06 3912.07 2412.94 3914.21C2408.82 3916.35 2400.91 3918.82 2395.15 3919.81C2387.73 3921.13 2382.13 3921.13 2374.55 3919.81C2368.94 3918.82 2361.03 3916.35 2357.08 3914.54C2352.96 3912.56 2347.19 3907.95 2344.22 3904.32C2341.26 3900.69 2337.47 3894.1 2335.99 3889.49C2334.17 3883.55 2333.68 3877.46 2334.17 3868.06C2334.67 3859.16 2335.99 3852.74 2338.29 3848.29C2340.27 3844.66 2344.72 3838.89 2348.18 3835.43C2352.13 3831.64 2358.07 3828.18 2364.33 3826.04C2371.75 3823.56 2377.51 3822.9 2387.4 3823.23V3823.23ZM2363.67 3845.48C2360.54 3847.96 2356.58 3852.9 2354.94 3856.53C2353.29 3860.15 2351.97 3867.24 2351.97 3872.18C2351.97 3878.61 2352.96 3883.39 2355.76 3888.66C2358.4 3893.61 2362.35 3897.73 2367.63 3901.02C2374.05 3904.98 2377.35 3905.97 2384.76 3905.97C2391.68 3905.8 2395.97 3904.65 2401.74 3901.35C2407.83 3897.89 2410.64 3894.93 2413.77 3888.33C2416.07 3883.55 2417.89 3876.63 2417.89 3873.01C2417.89 3869.38 2416.9 3863.45 2415.74 3859.82C2414.76 3856.2 2411.13 3850.59 2408 3847.46C2404.21 3843.67 2399.43 3840.87 2394.32 3839.55C2390.04 3838.4 2385.26 3837.57 2383.61 3837.74C2382.13 3837.74 2378.17 3838.56 2375.04 3839.55C2371.91 3840.37 2366.64 3843.18 2363.67 3845.48V3845.48ZM387.153 3931.68C594.132 3931.51 764.527 3931.84 765.845 3932.34C767.823 3933 768.317 3936.29 768.317 3947.99C768.317 3959.7 767.823 3962.99 765.845 3963.65C764.527 3964.15 594.296 3964.48 387.647 3964.48C180.998 3964.48 10.7673 3964.15 9.44892 3963.65C7.47141 3962.99 6.97704 3959.53 6.64745 3948.16C6.31787 3936.62 6.81224 3933.33 8.62496 3932.67C9.9433 3932.17 180.338 3931.68 387.153 3931.68ZM3086.45 3931.68C3293.43 3931.51 3463.82 3931.84 3465.14 3932.34C3467.12 3933 3467.61 3936.29 3467.61 3947.99C3467.61 3959.7 3467.12 3962.99 3465.14 3963.65C3463.82 3964.15 3293.59 3964.48 3086.94 3964.48C2880.29 3964.48 2710.06 3964.15 2708.75 3963.65C2706.77 3962.99 2706.27 3959.53 2705.94 3948.16C2705.61 3936.62 2706.11 3933.33 2707.92 3932.67C2709.24 3932.17 2879.63 3931.68 3086.45 3931.68Z" fill="#FAFAFA"/>
</svg>
